<svg xmlns="http://www.w3.org/2000/svg" viewBox="0 0 24 18">
    <g fill="none" fill-rule="evenodd">
        <path d="M0-3h24v24H0z"/>
        <path fill="currentColor" d="M3.64 13.97l-.881-.863 7.898-7.734 3.688 3.612-.882.863L10.657 7.1 3.64 13.97zm-1.382-1.343l-.879-.86 9.27-9.08 5.075 4.97-.879.86L10.65 4.41l-8.392 8.218zM10.645 0l6.458 6.325-.877.86-5.581-5.467-9.768 9.566-.877-.86L10.645 0zm2.699 12.627L9.655 9.015l.882-.863 2.807 2.748 7.016-6.87.881.863-7.897 7.734zm.007 2.686l-5.075-4.97.879-.86 4.196 4.109 8.39-8.219.88.861-9.27 9.08zm.004.97l9.768-9.567.877.86L13.355 18l-6.458-6.325.877-.859 5.581 5.466z"/>
    </g>
</svg>
